<svg width="926" height="458" viewBox="0 0 926 458" fill="none" xmlns="http://www.w3.org/2000/svg">
<g id="Group">
<path id="Vector 2" d="M625.52 238.76C644.778 238.76 660.39 223.148 660.39 203.89C660.39 184.632 644.778 169.02 625.52 169.02C606.262 169.02 590.65 184.632 590.65 203.89C590.65 223.148 606.262 238.76 625.52 238.76Z" fill="#767D9F"/>
<path id="Vector 3" d="M623.71 159.53C627.19 174.717 630.143 190.017 632.57 205.43C633.3 210.01 633.95 214.84 632.29 219.17C630.9 222.78 628.07 225.6 625.85 228.76C623.63 231.92 621.95 235.97 623.3 239.59C624.65 243.21 628.59 245.19 632.35 246.21C643.11 249.11 654.58 247 665.29 243.86C670.139 242.612 674.788 240.686 679.1 238.14C683.64 235.26 687.36 231.26 690.78 227.14C706.39 208.21 716.61 185.49 726.23 162.91C720.049 163.473 713.822 162.556 708.065 160.237C702.307 157.917 697.185 154.261 693.12 149.57C689.18 144.94 686.29 138.49 688.51 132.83C682 136.4 674.27 136.64 667.26 139.08C662.913 140.74 658.728 142.799 654.76 145.23C649.973 147.997 645.213 150.817 640.48 153.69C635.07 156.95 630 159.85 623.71 159.53Z" fill="#AE6E79"/>
<path id="Vector 4" d="M696.64 185.71C690.53 197.6 682.58 209.03 671.23 216.11C659.88 223.19 644.6 225.11 633.23 218.11C627.63 214.69 623.39 209.49 618.5 205.11C613.61 200.73 607.5 196.98 600.93 197.55C593.69 198.18 588.02 203.83 583.17 209.24C575.81 217.46 568.7 226.03 563.49 235.76C553.49 254.46 551.12 276.32 551.56 297.52C552 318.72 555.07 339.81 555.14 361.01C555.24 387.09 550.82 412.96 546.35 438.65C587.45 433.59 628.6 444.65 669.79 448.84C696.15 451.55 722.71 451.49 749.21 451.42C753.87 451.42 758.83 451.3 762.71 448.72C765.082 446.99 766.999 444.712 768.3 442.08C771.96 435.33 773.43 427.63 774.45 420.02C777.04 400.8 777.12 381.34 777.19 361.94C777.37 314.94 777.54 267.77 771.57 221.14C770.1 209.67 768.22 198.14 763.82 187.41C759.42 176.68 752.24 166.81 742.2 161.06C735.75 157.36 720.8 150.92 713.2 154.65C704.67 158.81 700.73 177.75 696.64 185.71Z" fill="#767D9F"/>
<path id="Vector 5" d="M699.68 318.43C698.13 289.43 691.82 258.48 705.25 232.74C708.55 226.42 696.71 218.53 700.37 212.41C704.836 204.948 708.223 196.892 710.43 188.48C711.19 185.59 711.8 182.53 711.08 179.63C709.75 174.34 704.52 171.19 700.08 167.97C695.18 164.41 692.66 153.56 691.08 147.69C689.5 141.82 703.65 148.89 709.34 146.8C717.24 143.91 727.28 145.73 735.16 148.66C739.56 150.28 744.34 150.42 749.03 150.54C758.14 150.78 767.28 151.01 776.32 149.89C780.38 149.38 784.45 148.61 788.53 148.84C798.94 149.43 807.99 156.55 814.15 164.97C820.31 173.39 824.23 183.2 829.28 192.32C833.49 199.92 838.51 207.1 842.1 215.01C845.28 222.01 847.29 229.53 849.28 237.01L854.41 256.2C855.307 258.945 855.733 261.823 855.67 264.71C855.41 267.78 854.05 270.64 852.67 273.37C847.452 283.489 841.195 293.037 834 301.86C823.21 315.09 810.11 327.02 803.7 342.86C801.2 349.03 799.81 355.59 798.54 362.13C793.42 388.287 789.78 414.713 787.64 441.28C775.955 435.873 763.707 431.778 751.12 429.07C744.845 427.728 738.503 426.726 732.12 426.07C726.53 425.49 719.32 426.59 714 425.07C705.1 422.54 704.12 407.49 702.77 399.61C700.61 387.06 700.18 374.29 700.1 361.61C700 347.19 700.45 332.8 699.68 318.43Z" fill="#4C4981"/>
<path id="Vector 6" d="M504.23 264.2C508.44 288.2 513.08 312.27 522.23 334.82C522 335.04 521.77 335.24 521.54 335.44C520.73 336.13 519.89 336.78 519.01 337.44C516.96 338.88 514.71 340.1 513.01 341.98C512.366 342.699 511.858 343.53 511.51 344.43C511.196 345.133 511.033 345.895 511.033 346.665C511.033 347.435 511.196 348.197 511.51 348.9C506.74 351.01 501.2 350.36 495.85 350.16C491.24 349.99 486.77 350.16 483.07 352.69C477.93 356.23 476.38 363.03 475.55 369.21C475.243 371.463 474.98 373.72 474.76 375.98C474.547 378.08 474.373 380.187 474.24 382.3C473.787 389.291 473.723 396.302 474.05 403.3C474.103 404.58 474.173 405.86 474.26 407.14C457.92 406.75 443.03 398.23 428.94 389.95C425.72 388.06 422.4 386.07 420.31 382.95C418.384 379.886 417.569 376.253 418 372.66C418 372.15 418.09 371.66 418.16 371.14C418.608 368.172 419.376 365.262 420.45 362.46C424.858 350.524 431.356 339.468 439.64 329.81C443.22 325.63 447.25 321.54 448.92 316.29C449.65 314 449.92 311.57 450.66 309.29C453.98 299.41 465.96 294.74 470.06 285.15C471.06 282.86 471.52 280.35 472.76 278.15C473.876 276.322 475.316 274.712 477.01 273.4C477.74 272.79 478.5 272.2 479.25 271.61C486.277 266.103 493.047 260.287 499.56 254.16C500.773 253.02 501.973 251.867 503.16 250.7C503.002 255.226 503.361 259.755 504.23 264.2Z" fill="#4C4981"/>
<path id="Vector 7" d="M605 193.22C603.56 194.74 602 196.17 600.47 197.59L600.06 197.96L598.44 199.46C595.5 201.998 592.955 204.96 590.89 208.25L590.72 208.53C585.62 217.66 587.51 228.9 588.93 239.27C590.691 252.193 591.483 265.229 591.3 278.27C591.04 296.27 588.92 314.15 588.88 332.13C588.88 336.21 588.97 340.28 589.15 344.36C589.44 350.99 589.94 357.61 590.54 364.23C591.19 371.49 591.97 378.74 592.7 385.99C593.28 391.6 593.83 397.2 594.29 402.8C594.52 405.7 594.74 408.59 594.92 411.49C595.13 414.89 595.3 418.3 595.4 421.7C595.47 423.86 595.51 426.01 595.51 428.17C595.51 429.4 595.51 430.62 595.51 431.84C595.51 434.18 595.447 436.513 595.32 438.84C595.187 441.833 594.983 444.833 594.71 447.84C594.4 451.11 593.85 454.68 591.55 456.98C591.41 457.12 591.26 457.25 591.11 457.38L587.87 456.98C565.535 454.306 542.986 453.904 520.57 455.78C521.06 452.4 521.51 449.03 521.95 445.64C522.15 444.04 522.35 442.43 522.54 440.82C522.76 438.98 522.97 437.14 523.17 435.3C523.4 433.3 523.61 431.3 523.81 429.3C524.33 424.147 524.787 418.99 525.18 413.83C525.76 406.303 526.2 398.763 526.5 391.21C526.647 387.603 526.76 383.993 526.84 380.38C526.953 375.9 527.007 371.417 527 366.93C527 362.57 526.963 358.203 526.89 353.83C526.89 352.39 526.83 350.95 526.71 349.52C526.624 348.232 526.447 346.953 526.18 345.69C525.437 342.779 524.433 339.941 523.18 337.21C522.96 336.69 522.75 336.21 522.54 335.66C522.42 335.39 522.31 335.11 522.2 334.84C527.96 329.71 532.06 322.84 536 316.08C542.39 305.19 548.93 293.82 550 281.24C551.07 268.66 544.82 254.53 532.8 250.69C529.53 249.69 526.07 249.41 522.7 248.82C519.52 248.26 512.89 246.99 509.21 244.71C507.21 246.763 505.21 248.78 503.21 250.76C503.331 247.739 504.07 244.775 505.38 242.05L506.8 242.12C506.684 241.8 506.63 241.46 506.64 241.12C506.64 240.05 507.38 238.84 508.96 237.5C513.67 233.5 521.08 232.61 524.05 227.2C525.29 224.95 525.5 222.27 526.5 219.91C529.37 213.18 537.61 210.7 542.57 205.32C547.53 199.94 548.77 192.32 552.78 186.32C555.775 181.938 559.93 178.476 564.78 176.32C565.18 176.13 565.59 175.94 566 175.77C574.3 172.22 584.16 171.41 592.76 171.43C596.1 171.43 604.76 171.53 609 173.22C609.688 173.466 610.317 173.85 610.85 174.35C615.37 179.27 608.34 189.66 605 193.22Z" fill="#4C4981"/>
<path id="Vector 8" d="M505.72 241.35C513.445 239.024 521.555 238.257 529.579 239.093C537.603 239.929 545.38 242.352 552.46 246.22C559.66 250.22 566.12 255.8 570.08 263C576.03 273.8 575.77 286.82 575.35 299.15C575.14 305.32 574.87 311.71 572.15 317.25C569 323.66 563.06 328.06 557 331.66C553.204 334.082 549.045 335.881 544.68 336.99C537.96 338.45 530.98 337.21 524.21 335.99C516.85 334.63 508.95 332.99 503.84 327.51C500.84 324.33 499.2 320.2 497.58 316.16C495.253 310.327 492.92 304.5 490.58 298.68C486.53 288.57 485.16 280.16 490.51 270.31C492.94 265.82 495.91 261.62 498.31 257.1C499.51 254.8 503.81 241.94 505.72 241.35Z" fill="#4C4981"/>
<path id="Vector 9" d="M926 414.22V444.12C905.49 452.641 883.482 456.993 861.27 456.92H591.58C591.44 457.06 591.29 457.19 591.14 457.32L587.9 456.92H108.17C67.92 456.92 30.62 446.06 0.0299988 427.56V381.91L230.75 355.28H230.93L365.29 366.66L400.06 369.66L418.12 371.19L455.5 374.36L474.73 375.99L502.73 378.37L506.67 378.7L526.85 380.41L554.23 382.66L592.73 385.92L656.91 391.37L702.06 395.2L776.2 401.49L790.3 402.68L791.82 402.81L793.14 402.92L811.76 404.5L832.2 406.24L834.57 406.44L926 414.22Z" fill="#504F60"/>
<path id="Vector 10" d="M655 413.12L365.86 363.77L354.65 420.46L487.19 436.33L528 441.44L640.26 419.33L655 413.12Z" fill="#9C9CA1"/>
<path id="Vector 11" d="M505.33 438.6L650.19 411.37C650.915 411.231 651.661 411.255 652.376 411.438C653.09 411.622 653.755 411.962 654.323 412.433C654.891 412.905 655.348 413.496 655.66 414.164C655.972 414.833 656.133 415.562 656.13 416.3C656.133 417.471 655.726 418.605 654.978 419.506C654.231 420.407 653.191 421.017 652.04 421.23L510.57 447.72L505.33 438.6Z" fill="#9C9CA1"/>
<path id="Vector 12" d="M568.17 352.97C572.68 352.55 577.25 351.84 581.31 349.84C586.31 347.35 590.2 343.06 594.83 339.9C605.01 332.9 618.63 331.96 630.3 335.98C641.97 340 651.71 348.61 658.53 358.89C663.06 365.74 666.46 374.48 663.26 382.04C662.162 384.351 660.778 386.515 659.14 388.48L650.8 399.38C649.216 401.671 647.309 403.722 645.14 405.47C642.02 407.74 638.14 408.67 634.32 409.23C624.17 410.71 613.84 409.87 603.61 410.55C586.04 411.72 568.88 417.38 551.27 417.19C541.15 417.08 531.16 415.04 521.27 413L477.5 404C469.88 402.44 461.27 400.16 457.68 393.25C456.07 390.14 455.77 386.54 455.58 383.04C455.06 373.4 455.58 362.68 462.26 355.73C468.54 349.21 478.47 347.15 485.97 342.33C495.15 336.42 498.18 338.33 507.86 342.77C526.745 351.322 547.523 354.837 568.17 352.97Z" fill="#AE6E79"/>
<path id="Vector 13" opacity="0.05" d="M568.17 352.97C572.68 352.55 577.25 351.84 581.31 349.84C586.31 347.35 590.2 343.06 594.83 339.9C605.01 332.9 618.63 331.96 630.3 335.98C641.97 340 651.71 348.61 658.53 358.89C663.06 365.74 666.46 374.48 663.26 382.04C662.162 384.351 660.778 386.515 659.14 388.48L650.8 399.38C649.216 401.671 647.309 403.722 645.14 405.47C642.02 407.74 638.14 408.67 634.32 409.23C624.17 410.71 613.84 409.87 603.61 410.55C586.04 411.72 568.88 417.38 551.27 417.19C541.15 417.08 531.16 415.04 521.27 413L477.5 404C469.88 402.44 461.27 400.16 457.68 393.25C456.07 390.14 455.77 386.54 455.58 383.04C455.06 373.4 455.58 362.68 462.26 355.73C468.54 349.21 478.47 347.15 485.97 342.33C495.15 336.42 498.18 338.33 507.86 342.77C526.745 351.322 547.523 354.837 568.17 352.97Z" fill="black"/>
<path id="Vector 14" d="M743.94 339.26C731.66 344.01 719.31 348.78 706.45 351.61C684.89 356.36 662.33 355.61 640.94 361.04C629.64 363.92 618.41 368.56 606.8 367.62C601.61 367.2 596.6 365.62 591.55 364.42C563.18 357.42 530.93 359.69 507.89 377.69C500.01 383.84 493.56 391.51 487.71 399.69C486.458 401.457 485.612 403.478 485.232 405.61C484.853 407.742 484.948 409.931 485.513 412.022C486.078 414.112 487.097 416.052 488.499 417.702C489.9 419.353 491.649 420.674 493.62 421.57C502.58 425.691 512.178 428.251 522 429.14C535.13 430.3 548.32 428.44 561.38 426.58C580.76 423.83 600.15 421.07 619.48 417.98C626.42 416.87 633.36 415.72 640.34 414.84C690.57 408.49 741.71 416.21 792.07 410.91C797.16 410.37 802.34 409.67 806.97 407.5C818.69 402 824.49 387.5 822.07 374.76C819.65 362.02 810.31 351.43 799.07 344.93C789.65 339.46 779.49 337.25 769 334.93C759.26 332.66 753.32 335.66 743.94 339.26Z" fill="#AE6E79"/>
<path id="Vector 15" opacity="0.1" d="M851.67 263.1C857.21 270.36 858.39 280.1 857.79 289.19C857.19 298.28 855.03 307.27 854.71 316.4C854.27 328.92 857.29 341.4 856.78 353.88C856.42 362.61 854.35 371.17 851.9 379.55C849.01 389.44 844.83 400.07 835.7 404.82C823.58 411.13 798.16 407.58 785.41 412.52C786.57 405.29 797.69 394.82 798.85 387.59C799.65 382.59 800.46 377.45 799.6 372.44C798.5 366.05 794.75 360.38 790.3 355.66C783.22 348.15 773.98 342.5 763.83 340.66C753.68 338.82 728.83 340.33 720.71 346.74C719.71 340.12 738.31 333.74 744.85 332.31C748.11 331.58 751.85 331.99 754.46 329.92C759.46 326 755.83 318.19 756.07 311.92C756.26 306.92 759.18 302.34 759.77 297.34C760.77 289.34 755.55 281.19 757.6 273.34C758.36 270.44 760.05 267.89 761.22 265.13C764.78 256.68 763.22 247.04 761.32 238.06C760.14 232.42 758.99 226.06 762.13 221.25C765.04 216.76 773.3 232.75 778.59 232.01C796.06 229.56 811.87 216.61 825.98 227.21C833.17 232.61 834.11 238.21 836.98 245.92C839.77 253.26 847 257.02 851.67 263.1Z" fill="black"/>
<path id="Vector 16" d="M854.67 263.1C860.21 270.36 861.39 280.1 860.79 289.19C860.19 298.28 858.03 307.27 857.71 316.4C857.27 328.92 860.29 341.4 859.78 353.88C859.42 362.61 857.35 371.17 854.9 379.55C852.01 389.44 847.83 400.07 838.7 404.82C826.58 411.13 801.16 407.58 788.41 412.52C789.57 405.29 800.69 394.82 801.85 387.59C802.65 382.59 803.46 377.45 802.6 372.44C801.5 366.05 797.75 360.38 793.3 355.66C786.22 348.15 776.98 342.5 766.83 340.66C756.68 338.82 731.83 340.33 723.71 346.74C722.71 340.12 741.31 333.74 747.85 332.31C751.11 331.58 754.85 331.99 757.46 329.92C762.46 326 758.83 318.19 759.07 311.92C759.26 306.92 762.18 302.34 762.77 297.34C763.77 289.34 758.55 281.19 760.6 273.34C761.36 270.44 763.05 267.89 764.22 265.13C767.78 256.68 766.22 247.04 764.32 238.06C763.14 232.42 761.99 226.06 765.13 221.25C768.04 216.76 773.73 215.06 779.02 214.31C796.732 211.914 814.678 216.544 829.02 227.21C836.21 232.61 837.15 238.21 840.02 245.92C842.77 253.26 850 257.02 854.67 263.1Z" fill="#4C4981"/>
<path id="Vector 17" d="M193 215.72L247.37 416.66C248.037 419.122 249.439 421.322 251.388 422.968C253.337 424.613 255.741 425.625 258.28 425.87L503 449.38C504.994 449.572 507.006 449.284 508.866 448.539C510.726 447.794 512.381 446.614 513.691 445.098C515.001 443.582 515.929 441.774 516.397 439.826C516.865 437.878 516.859 435.846 516.38 433.9L456.84 191.52C456.132 188.639 454.425 186.102 452.022 184.361C449.62 182.62 446.678 181.787 443.72 182.01L204.13 199.93C202.29 200.073 200.505 200.62 198.901 201.532C197.298 202.445 195.915 203.699 194.852 205.208C193.789 206.716 193.072 208.44 192.752 210.257C192.431 212.074 192.516 213.939 193 215.72Z" fill="#9C9CA1"/>
<path id="Vector 18" d="M678.11 254.93C692.966 254.93 705.01 242.73 705.01 227.68C705.01 212.63 692.966 200.43 678.11 200.43C663.254 200.43 651.21 212.63 651.21 227.68C651.21 242.73 663.254 254.93 678.11 254.93Z" fill="white"/>
<path id="Vector 19" d="M700.2 177.97C700.2 177.97 705.87 194.83 689.14 201.92L687 205.66L697.48 216C697.48 216 710.4 192.43 709 184.06C709 184.06 707 175.56 700.2 177.97Z" fill="white"/>
<path id="Vector 20" d="M681.2 254.93C695.526 254.93 707.14 243.316 707.14 228.99C707.14 214.664 695.526 203.05 681.2 203.05C666.874 203.05 655.26 214.664 655.26 228.99C655.26 243.316 666.874 254.93 681.2 254.93Z" fill="#6C63FF"/>
<path id="Vector 21" d="M709.13 187.89L705.01 181.09L699.01 180.24C700.29 157.85 694.48 151.18 694.48 151.18L693.13 151.05L687.25 150.48L676.19 139V135.74C691.73 137.59 700.32 144.97 704.96 153.62C713.16 168.8 709.13 187.89 709.13 187.89Z" fill="#6C63FF"/>
<path id="Vector 22" opacity="0.1" d="M693.18 146.93V151.05L687.3 150.48L676.24 139C676.24 139 693.35 142.83 693.18 146.93Z" fill="black" stroke="#4C4981" stroke-miterlimit="10"/>
<path id="Vector 23" opacity="0.1" d="M709.13 187.89L705.01 181.09V153.66C713.16 168.8 709.13 187.89 709.13 187.89Z" fill="black" stroke="#4C4981" stroke-miterlimit="10"/>
<path id="Vector 24" d="M633.267 239.653C640.168 235.668 639.871 222.233 632.603 209.644C625.335 197.056 613.848 190.081 606.947 194.066C600.045 198.05 600.342 211.486 607.61 224.074C614.878 236.663 626.365 243.638 633.267 239.653Z" fill="white"/>
<path id="Vector 25" d="M624 214.66C631.27 227.25 640.19 235.66 633.29 239.66C626.39 243.66 606.29 241.66 599.02 229.06C591.75 216.46 598.35 199.06 605.25 195.06C612.15 191.06 616.72 202.04 624 214.66Z" fill="#6C63FF"/>
<path id="Vector 26" opacity="0.1" d="M688.73 123.96C688.73 164.19 661.2 202.96 620.97 202.96C601.649 202.96 583.119 195.285 569.457 181.623C555.795 167.961 548.12 149.431 548.12 130.11C548.12 110.789 555.795 92.259 569.457 78.597C583.119 64.935 601.649 57.26 620.97 57.26C661.2 57.3 688.73 83.72 688.73 123.96Z" fill="black"/>
<path id="Vector 27" d="M620.97 201C661.204 201 693.82 168.384 693.82 128.15C693.82 87.916 661.204 55.3 620.97 55.3C580.736 55.3 548.12 87.916 548.12 128.15C548.12 168.384 580.736 201 620.97 201Z" fill="#AE6E79"/>
<path id="Vector 28" d="M614.57 95.87C623.24 99.06 628.37 108.02 636.15 113.01C647.15 120.01 661.47 118.2 674.03 114.74C681.03 112.83 688.35 110.5 695.24 112.62C696.253 113.069 697.371 113.228 698.47 113.08C699.97 112.65 700.71 110.99 701.2 109.51C709.72 84.11 705.89 55.34 693.03 31.84C689.71 25.78 685.73 19.92 680.25 15.71C675.93 12.4 670.85 10.23 665.73 8.37999C656.373 5.01999 646.696 2.62999 636.85 1.24999C635.111 0.93399 633.335 0.876992 631.58 1.07999C629.17 1.46999 627.01 2.76998 624.86 3.92998C615.652 8.86598 605.44 11.64 595 12.04C581 12.57 565 9.26999 554.21 18.25C541.21 29.02 544.45 50.03 536.02 64.65C530.44 74.32 519.68 81.34 517.91 92.35C517.449 95.715 517.663 99.139 518.54 102.42C522.66 119.36 539.06 132.48 556.54 132.79C559.224 132.995 561.912 132.444 564.3 131.2C565.864 130.133 567.245 128.819 568.39 127.31C579.84 113.75 592.94 87.91 614.57 95.87Z" fill="#444053"/>
<path id="Vector 29" opacity="0.1" d="M701.2 102.14C700.71 103.62 699.97 105.28 698.47 105.71C697.371 105.858 696.253 105.699 695.24 105.25C688.35 103.13 680.99 105.46 674.04 107.37C661.47 110.83 647.12 112.68 636.16 105.64C628.37 100.64 623.25 91.64 614.57 88.5C592.94 80.5 579.84 106.38 568.36 119.94C567.215 121.449 565.834 122.763 564.27 123.83C561.882 125.074 559.194 125.625 556.51 125.42C539.09 125.11 522.68 111.99 518.51 95.05C518.28 94.05 518.08 93.05 517.93 92.05C517.93 92.14 517.93 92.22 517.88 92.31C517.419 95.675 517.633 99.098 518.51 102.38C522.63 119.32 539.04 132.44 556.51 132.75C559.194 132.955 561.882 132.404 564.27 131.16C565.834 130.093 567.215 128.779 568.36 127.27C579.84 113.71 592.94 87.87 614.57 95.83C623.25 99.02 628.37 107.98 636.16 112.97C647.16 119.97 661.47 118.16 674.04 114.7C681.04 112.79 688.35 110.46 695.24 112.58C696.253 113.029 697.371 113.188 698.47 113.04C699.97 112.61 700.71 110.95 701.2 109.47C704.637 99.077 706.155 88.146 705.68 77.21C705.386 85.691 703.877 94.087 701.2 102.14Z" fill="black"/>
</g>
</svg>
