<svg id="svg" version="1.1" xmlns="http://www.w3.org/2000/svg" xmlns:xlink="http://www.w3.org/1999/xlink" width="400" height="225" viewBox="0, 0, 400,225"><g id="svgg"><path id="path0" d="M127.083 84.063 L 127.083 98.958 130.104 98.958 L 133.125 98.958 133.125 93.333 L 133.125 87.708 137.135 87.707 C 141.788 87.705,143.361 87.499,145.119 86.660 C 150.352 84.162,151.517 75.814,147.219 71.615 C 145.083 69.528,143.023 69.171,133.073 69.168 L 127.083 69.167 127.083 84.063 M196.250 71.875 L 196.250 74.595 199.115 74.537 L 201.979 74.479 201.979 71.875 L 201.979 69.271 199.115 69.213 L 196.250 69.155 196.250 71.875 M257.344 71.586 L 254.583 73.172 254.583 75.336 L 254.583 77.500 253.333 77.500 L 252.083 77.500 252.083 79.792 L 252.083 82.083 253.333 82.083 L 254.583 82.083 254.585 87.969 C 254.587 96.482,254.869 97.669,257.164 98.843 C 258.659 99.608,261.319 99.712,263.411 99.088 L 264.635 98.723 264.496 97.226 C 264.250 94.581,264.173 94.323,263.671 94.467 C 260.453 95.390,260.417 95.318,260.417 88.021 L 260.417 82.083 262.292 82.083 L 264.167 82.083 264.167 79.792 L 264.167 77.500 262.292 77.500 L 260.417 77.500 260.417 73.750 C 260.417 71.688,260.346 70.000,260.260 70.001 C 260.174 70.001,258.862 70.715,257.344 71.586 M141.407 74.930 C 143.808 76.066,144.394 79.630,142.468 81.382 C 141.273 82.469,140.745 82.590,136.823 82.672 L 133.125 82.749 133.125 78.445 L 133.125 74.142 136.719 74.277 C 139.954 74.399,140.422 74.464,141.407 74.930 M162.813 77.380 C 162.182 77.664,160.769 79.043,160.135 79.994 C 159.800 80.496,159.792 80.472,159.792 79.005 L 159.792 77.500 157.188 77.500 L 154.583 77.500 154.583 88.229 L 154.583 98.958 157.396 98.958 L 160.208 98.958 160.214 94.115 C 160.222 86.282,160.652 83.728,162.138 82.669 C 163.056 82.016,164.509 81.939,165.730 82.479 C 166.281 82.723,166.747 82.897,166.767 82.867 C 166.986 82.533,168.345 78.264,168.287 78.091 C 168.015 77.274,164.162 76.774,162.813 77.380 M176.929 77.590 C 167.905 80.513,166.842 94.092,175.313 98.233 C 184.453 102.700,193.891 95.143,191.554 85.228 C 190.087 79.004,183.380 75.501,176.929 77.590 M212.972 77.518 C 204.418 80.228,203.919 95.613,212.282 98.764 C 217.508 100.734,223.230 98.966,225.443 94.698 C 226.285 93.073,226.408 93.200,223.517 92.703 C 220.697 92.217,220.417 92.205,220.417 92.573 C 220.417 92.728,220.137 93.240,219.796 93.711 C 217.543 96.821,212.560 94.851,212.251 90.729 L 212.189 89.896 219.355 89.841 L 226.521 89.786 226.397 87.653 C 225.938 79.710,220.060 75.273,212.972 77.518 M237.105 77.413 C 227.577 79.975,227.292 95.924,236.719 99.012 C 242.493 100.904,248.567 98.032,249.993 92.736 C 250.297 91.607,250.480 91.726,247.684 91.244 C 244.769 90.743,244.584 90.740,244.581 91.198 C 244.558 95.283,238.407 96.175,236.536 92.364 C 235.639 90.537,235.623 85.493,236.509 83.812 C 238.189 80.624,243.226 80.736,244.198 83.981 C 244.332 84.427,244.450 84.791,244.460 84.791 C 244.826 84.769,249.888 83.723,249.955 83.656 C 250.197 83.414,248.491 80.355,247.639 79.503 C 245.470 77.334,240.826 76.412,237.105 77.413 M196.250 89.177 C 196.250 103.020,196.303 102.771,193.434 102.448 C 192.920 102.390,192.500 102.380,192.500 102.425 C 192.500 102.553,191.653 106.522,191.545 106.897 C 191.308 107.725,196.456 108.015,198.410 107.284 C 201.851 105.997,202.069 104.878,202.078 88.490 L 202.083 77.500 199.167 77.500 L 196.250 77.500 196.250 89.177 M218.783 82.060 C 219.860 82.742,220.543 83.926,220.756 85.479 L 220.890 86.458 216.562 86.458 L 212.234 86.458 212.362 85.376 C 212.749 82.109,216.118 80.369,218.783 82.060 M182.813 82.062 C 186.958 83.986,187.194 92.036,183.169 94.227 C 178.834 96.586,174.694 92.501,175.589 86.747 C 176.213 82.731,179.567 80.556,182.813 82.062 M155.625 117.708 L 155.625 120.417 158.438 120.417 L 161.250 120.417 161.250 117.708 L 161.250 115.000 158.438 115.000 L 155.625 115.000 155.625 117.708 M193.384 117.437 L 190.625 119.041 190.625 121.187 L 190.625 123.333 189.375 123.333 L 188.125 123.333 188.125 125.625 L 188.125 127.917 189.375 127.917 L 190.625 127.917 190.629 133.698 C 190.635 142.322,190.913 143.504,193.206 144.676 C 194.701 145.441,197.360 145.545,199.453 144.922 L 200.676 144.557 200.532 142.851 C 200.325 140.400,200.244 140.148,199.713 140.301 C 196.495 141.224,196.458 141.151,196.458 133.854 L 196.458 127.917 198.333 127.917 L 200.208 127.917 200.208 125.625 L 200.208 123.333 198.333 123.333 L 196.458 123.333 196.458 119.583 C 196.458 117.521,196.387 115.833,196.301 115.833 C 196.214 115.833,194.901 116.555,193.384 117.437 M139.564 123.222 C 138.202 123.723,137.433 124.207,136.314 125.265 L 135.208 126.310 135.208 124.822 L 135.208 123.333 132.604 123.333 L 130.000 123.333 130.000 138.229 L 130.000 153.125 132.813 153.125 L 135.625 153.125 135.625 147.692 L 135.625 142.259 136.736 143.209 C 144.114 149.512,153.027 141.429,150.727 130.521 C 149.564 125.007,144.215 121.509,139.564 123.222 M173.147 123.235 C 163.745 125.860,163.344 141.895,172.608 144.775 C 178.722 146.676,184.445 144.045,186.055 138.592 C 186.386 137.472,186.519 137.559,183.726 137.078 C 180.602 136.540,180.752 136.518,180.467 137.552 C 179.378 141.503,174.401 141.910,172.578 138.198 C 171.633 136.274,171.662 131.289,172.628 129.583 C 174.488 126.300,179.458 126.603,180.319 130.052 C 180.397 130.367,180.475 130.624,180.491 130.624 C 180.767 130.613,185.922 129.564,185.979 129.507 C 186.383 129.103,184.223 125.638,182.972 124.683 C 180.890 123.093,176.153 122.395,173.147 123.235 M237.526 123.355 C 236.944 123.652,236.286 124.266,235.703 125.057 L 234.792 126.296 234.792 124.815 L 234.792 123.333 232.083 123.333 L 229.375 123.333 229.375 134.063 L 229.375 144.792 232.292 144.792 L 235.208 144.792 235.210 139.635 C 235.213 130.340,235.845 128.243,238.731 127.966 C 239.452 127.896,240.001 127.990,240.706 128.302 L 241.683 128.734 241.868 128.248 C 242.351 126.976,243.333 124.117,243.333 123.980 C 243.333 123.081,238.983 122.613,237.526 123.355 M250.828 123.391 C 242.009 126.398,241.937 141.882,250.729 144.761 C 255.933 146.465,261.410 144.584,263.495 140.378 C 264.274 138.806,264.515 139.033,261.542 138.542 C 258.396 138.024,258.404 138.023,258.249 138.642 C 257.205 142.799,250.622 141.234,250.249 136.741 L 250.157 135.625 257.266 135.625 L 264.375 135.625 264.375 134.158 C 264.375 126.006,258.005 120.944,250.828 123.391 M155.625 134.063 L 155.625 144.792 158.438 144.792 L 161.250 144.792 161.250 134.063 L 161.250 123.333 158.438 123.333 L 155.625 123.333 155.625 134.063 M204.168 130.781 C 204.170 140.315,204.377 141.635,206.140 143.373 C 209.010 146.203,214.415 145.924,217.554 142.786 L 218.542 141.798 218.542 143.295 L 218.542 144.792 221.250 144.792 L 223.958 144.792 223.958 134.063 L 223.958 123.333 221.060 123.333 L 218.162 123.333 218.085 130.469 C 217.998 138.492,217.990 138.536,216.477 139.832 C 214.187 141.792,210.935 141.173,210.233 138.643 C 210.085 138.110,210.002 135.224,210.001 130.573 L 210.000 123.333 207.083 123.333 L 204.167 123.333 204.168 130.781 M141.680 127.500 C 144.380 128.250,145.825 132.188,145.002 136.551 C 143.874 142.531,137.024 142.180,135.824 136.080 C 134.753 130.637,137.657 126.383,141.680 127.500 M256.555 127.766 C 257.625 128.372,258.515 129.815,258.680 131.210 L 258.808 132.292 254.479 132.292 L 250.150 132.292 250.276 131.229 C 250.651 128.062,253.907 126.267,256.555 127.766 " stroke="none" fill="#fbfafc" fill-rule="evenodd"></path><path id="path1" d="M0.000 112.500 L 0.000 225.000 200.000 225.000 L 400.000 225.000 400.000 112.500 L 400.000 0.000 200.000 0.000 L 0.000 0.000 0.000 112.500 M142.776 69.381 C 152.066 70.724,152.515 85.132,143.339 87.450 C 142.625 87.631,140.468 87.785,137.656 87.856 L 133.125 87.971 133.125 93.569 L 133.125 99.167 130.000 99.167 L 126.875 99.167 126.875 84.167 L 126.875 69.167 134.115 69.171 C 138.096 69.173,141.994 69.267,142.776 69.381 M202.083 71.875 L 202.083 74.583 199.167 74.583 L 196.250 74.583 196.250 71.875 L 196.250 69.167 199.167 69.167 L 202.083 69.167 202.083 71.875 M260.417 73.542 L 260.417 77.292 262.396 77.292 L 264.375 77.292 264.375 79.688 L 264.375 82.083 262.396 82.083 L 260.417 82.083 260.420 87.760 C 260.424 94.850,260.626 95.246,263.763 94.302 L 264.296 94.141 264.531 96.394 C 264.660 97.632,264.701 98.712,264.621 98.794 C 263.769 99.660,258.703 99.806,257.168 99.009 C 254.784 97.771,254.583 96.959,254.583 88.531 L 254.583 82.083 253.229 82.083 L 251.875 82.083 251.875 79.688 L 251.875 77.292 253.229 77.292 L 254.583 77.292 254.591 75.156 L 254.599 73.021 257.352 71.418 C 258.866 70.537,260.174 69.810,260.260 69.804 C 260.346 69.797,260.417 71.479,260.417 73.542 M133.125 78.549 L 133.125 82.770 136.510 82.646 C 141.839 82.450,143.533 81.435,143.533 78.438 C 143.533 75.482,141.950 74.548,136.719 74.418 L 133.125 74.328 133.125 78.549 M166.789 77.181 C 168.736 77.759,168.718 77.695,167.722 80.531 C 166.686 83.482,166.914 83.206,165.931 82.705 C 164.851 82.154,163.242 82.158,162.330 82.715 C 160.782 83.658,160.420 85.675,160.418 93.385 L 160.417 99.167 157.396 99.167 L 154.375 99.167 154.375 88.223 L 154.375 77.280 157.135 77.338 L 159.896 77.396 160.000 78.596 L 160.104 79.796 161.023 78.727 C 162.535 76.967,164.392 76.469,166.789 77.181 M183.051 77.069 C 196.262 79.575,194.296 99.604,180.842 99.580 C 173.825 99.568,169.546 95.188,169.548 88.021 C 169.551 80.642,175.680 75.671,183.051 77.069 M218.564 77.088 C 223.390 78.003,226.116 81.714,226.577 87.999 L 226.724 90.000 219.508 90.000 C 211.306 90.000,212.011 89.806,212.625 91.889 C 213.736 95.652,218.573 96.312,220.108 92.909 C 220.444 92.162,220.567 92.061,221.029 92.151 C 221.323 92.208,222.623 92.423,223.918 92.628 C 226.606 93.054,226.603 93.049,225.469 94.997 C 223.663 98.098,220.840 99.587,216.779 99.580 C 209.983 99.569,206.250 95.581,206.250 88.333 C 206.250 80.467,211.432 75.735,218.564 77.088 M243.361 77.175 C 246.236 77.784,248.586 79.712,249.639 82.323 C 250.291 83.940,250.435 83.812,247.343 84.373 C 244.504 84.888,244.283 84.865,244.075 84.040 C 243.450 81.548,239.611 80.763,237.426 82.681 C 235.735 84.165,235.335 89.790,236.727 92.495 C 238.481 95.903,243.217 95.427,244.290 91.735 C 244.604 90.657,244.662 90.588,245.177 90.689 C 245.481 90.748,246.787 90.964,248.080 91.169 L 250.432 91.541 250.304 92.177 C 248.352 101.911,233.388 102.251,230.362 92.629 C 229.685 90.474,229.702 85.735,230.395 83.758 C 232.251 78.468,237.319 75.894,243.361 77.175 M202.079 89.323 C 202.075 101.624,201.973 103.587,201.269 104.957 C 200.068 107.292,197.088 108.342,193.418 107.723 C 191.238 107.355,191.315 107.507,191.889 104.707 L 192.384 102.292 193.669 102.292 C 196.291 102.292,196.222 102.665,196.238 88.385 L 196.250 77.292 199.167 77.292 L 202.083 77.292 202.079 89.323 M215.001 81.790 C 213.563 82.414,212.792 83.481,212.515 85.228 L 212.354 86.250 216.489 86.250 L 220.625 86.250 220.625 85.656 C 220.625 82.741,217.601 80.663,215.001 81.790 M179.582 81.861 C 176.846 82.693,175.760 84.494,175.742 88.229 C 175.716 93.355,178.982 96.154,182.806 94.283 C 188.622 91.438,185.656 80.014,179.582 81.861 M161.458 117.708 L 161.458 120.417 158.438 120.417 L 155.417 120.417 155.417 117.708 L 155.417 115.000 158.438 115.000 L 161.458 115.000 161.458 117.708 M196.458 119.375 L 196.458 123.125 198.438 123.125 L 200.417 123.125 200.417 125.521 L 200.417 127.917 198.426 127.917 L 196.435 127.917 196.499 133.823 C 196.576 140.941,196.683 141.139,199.912 140.108 C 200.364 139.964,201.084 144.208,200.676 144.616 C 199.799 145.493,194.756 145.646,193.209 144.843 C 190.825 143.605,190.625 142.792,190.625 134.365 L 190.625 127.917 189.271 127.917 L 187.917 127.917 187.917 125.521 L 187.917 123.125 189.271 123.125 L 190.625 123.125 190.633 120.990 L 190.641 118.854 193.393 117.252 C 194.907 116.370,196.216 115.644,196.302 115.637 C 196.388 115.630,196.458 117.313,196.458 119.375 M145.274 123.324 C 153.013 126.300,153.267 140.888,145.645 144.640 C 142.775 146.053,139.139 145.529,136.823 143.367 L 135.833 142.443 135.833 147.888 L 135.833 153.333 132.917 153.333 L 130.000 153.333 130.000 138.229 L 130.000 123.125 132.708 123.125 L 135.417 123.125 135.417 124.599 L 135.417 126.074 135.961 125.426 C 138.038 122.958,141.998 122.065,145.274 123.324 M179.402 123.008 C 182.162 123.593,184.256 125.190,185.414 127.594 C 186.434 129.710,186.510 129.601,183.646 130.151 C 180.649 130.727,180.406 130.709,180.143 129.896 C 179.115 126.721,174.255 126.553,172.681 129.638 C 171.664 131.629,171.711 136.274,172.769 138.329 C 174.521 141.733,179.183 141.273,180.347 137.581 C 180.682 136.519,180.756 136.432,181.241 136.527 C 181.533 136.584,182.829 136.798,184.122 137.002 L 186.473 137.375 186.346 138.010 C 184.409 147.669,169.416 148.093,166.447 138.573 C 163.446 128.949,170.042 121.024,179.402 123.008 M242.552 123.308 C 243.096 123.543,243.542 123.779,243.542 123.833 C 243.542 123.962,241.840 128.834,241.765 128.921 C 241.733 128.957,241.327 128.793,240.862 128.556 C 239.698 127.962,238.192 127.981,237.270 128.601 C 235.703 129.656,235.246 132.574,235.218 141.719 L 235.208 145.000 232.292 145.000 L 229.375 145.000 229.375 134.063 L 229.375 123.125 232.083 123.125 L 234.792 123.125 234.792 124.630 C 234.792 126.097,234.800 126.122,235.135 125.619 C 236.983 122.850,239.599 122.034,242.552 123.308 M256.481 122.921 C 261.323 123.839,264.088 127.588,264.509 133.802 L 264.646 135.833 257.409 135.833 L 250.172 135.833 250.312 136.719 C 251.032 141.266,256.805 142.645,258.144 138.590 C 258.349 137.966,258.451 137.888,258.929 137.981 C 259.232 138.040,260.534 138.256,261.823 138.460 C 264.464 138.878,264.413 138.815,263.539 140.564 C 261.966 143.713,258.852 145.420,254.696 145.414 C 247.953 145.403,244.174 141.363,244.174 134.167 C 244.174 126.346,249.394 121.577,256.481 122.921 M161.458 134.063 L 161.458 145.000 158.438 145.000 L 155.417 145.000 155.417 134.201 C 155.417 128.262,155.479 123.340,155.556 123.264 C 155.632 123.188,156.991 123.125,158.576 123.125 L 161.458 123.125 161.458 134.063 M210.034 130.781 C 210.101 138.061,210.125 138.473,210.532 139.166 C 211.543 140.887,213.513 141.326,215.587 140.292 C 217.821 139.179,218.090 137.891,218.113 128.177 L 218.125 123.125 221.042 123.125 L 223.958 123.125 223.958 134.063 L 223.958 145.000 221.250 145.000 L 218.542 145.000 218.542 143.513 L 218.542 142.026 217.494 143.006 C 213.752 146.506,207.061 146.074,205.058 142.203 C 204.246 140.633,204.172 139.721,204.169 131.302 L 204.167 123.125 207.066 123.125 L 209.965 123.125 210.034 130.781 M252.703 127.760 C 251.468 128.385,250.597 129.657,250.465 131.027 L 250.364 132.083 254.528 132.083 L 258.693 132.083 258.503 130.990 C 258.136 128.874,256.414 127.292,254.479 127.292 C 254.012 127.292,253.213 127.503,252.703 127.760 M138.644 127.889 C 135.050 129.521,134.675 137.485,138.080 139.878 C 140.361 141.482,143.352 140.572,144.527 137.917 C 145.028 136.784,145.140 132.462,144.706 130.970 C 143.888 128.158,141.134 126.757,138.644 127.889 " stroke="none" fill="#845cfc" fill-rule="evenodd"></path><path id="path2" d="M126.974 84.167 C 126.974 92.474,127.000 95.872,127.031 91.719 C 127.063 87.565,127.063 80.768,127.031 76.615 C 127.000 72.461,126.974 75.859,126.974 84.167 M149.858 78.333 C 149.858 79.078,149.896 79.383,149.942 79.010 C 149.989 78.638,149.989 78.029,149.942 77.656 C 149.896 77.284,149.858 77.589,149.858 78.333 M157.083 77.445 L 159.792 77.512 159.792 78.873 C 159.792 79.621,159.862 80.189,159.949 80.136 C 160.035 80.082,160.059 79.444,160.001 78.717 L 159.896 77.396 157.135 77.386 L 154.374 77.377 157.083 77.445 M197.656 77.446 C 198.487 77.486,199.846 77.486,200.677 77.446 C 201.508 77.407,200.828 77.374,199.167 77.374 C 197.505 77.374,196.826 77.407,197.656 77.446 M252.443 77.442 C 252.813 77.488,253.469 77.489,253.902 77.444 C 254.334 77.399,254.031 77.361,253.229 77.360 C 252.427 77.359,252.073 77.396,252.443 77.442 M261.413 77.446 C 262.019 77.488,262.956 77.487,263.497 77.445 C 264.037 77.402,263.542 77.367,262.396 77.368 C 261.250 77.368,260.808 77.403,261.413 77.446 M240.159 81.606 C 240.418 81.656,240.793 81.654,240.992 81.601 C 241.191 81.549,240.979 81.509,240.521 81.511 C 240.063 81.513,239.900 81.556,240.159 81.606 M220.625 86.007 C 220.625 86.183,219.455 86.263,216.406 86.297 L 212.188 86.345 216.339 86.406 C 220.204 86.463,221.211 86.350,220.767 85.906 C 220.689 85.828,220.625 85.873,220.625 86.007 M191.942 88.125 C 191.942 88.870,191.979 89.174,192.026 88.802 C 192.072 88.430,192.072 87.820,192.026 87.448 C 191.979 87.076,191.942 87.380,191.942 88.125 M185.898 88.229 C 185.899 88.917,185.938 89.173,185.984 88.798 C 186.031 88.424,186.030 87.861,185.982 87.548 C 185.935 87.235,185.897 87.542,185.898 88.229 M226.523 88.854 C 226.524 89.542,226.563 89.798,226.609 89.423 C 226.656 89.049,226.655 88.486,226.607 88.173 C 226.560 87.860,226.522 88.167,226.523 88.854 M160.297 94.688 C 160.297 97.208,160.327 98.211,160.364 96.916 C 160.401 95.620,160.400 93.558,160.364 92.332 C 160.327 91.107,160.297 92.167,160.297 94.688 M155.498 117.708 C 155.498 119.255,155.531 119.888,155.571 119.115 C 155.611 118.341,155.611 117.076,155.571 116.302 C 155.531 115.529,155.498 116.161,155.498 117.708 M131.302 123.279 C 132.076 123.320,133.341 123.320,134.115 123.279 C 134.888 123.239,134.255 123.207,132.708 123.207 C 131.161 123.207,130.529 123.239,131.302 123.279 M155.512 123.385 C 155.457 123.529,155.438 128.474,155.469 134.375 L 155.525 145.104 155.575 134.224 L 155.625 123.345 158.594 123.281 L 161.563 123.217 158.587 123.171 C 156.364 123.137,155.587 123.191,155.512 123.385 M188.485 123.275 C 188.855 123.321,189.511 123.322,189.943 123.277 C 190.376 123.232,190.073 123.194,189.271 123.193 C 188.469 123.192,188.115 123.229,188.485 123.275 M197.455 123.279 C 198.060 123.321,198.998 123.321,199.538 123.278 C 200.079 123.235,199.583 123.201,198.438 123.201 C 197.292 123.202,196.849 123.237,197.455 123.279 M205.573 123.280 C 206.404 123.319,207.763 123.319,208.594 123.280 C 209.424 123.240,208.745 123.208,207.083 123.208 C 205.422 123.208,204.742 123.240,205.573 123.280 M219.531 123.280 C 220.362 123.319,221.721 123.319,222.552 123.280 C 223.383 123.240,222.703 123.208,221.042 123.208 C 219.380 123.208,218.701 123.240,219.531 123.280 M230.677 123.279 C 231.451 123.320,232.716 123.320,233.490 123.279 C 234.263 123.239,233.630 123.207,232.083 123.207 C 230.536 123.207,229.904 123.239,230.677 123.279 M176.200 127.439 C 176.459 127.489,176.834 127.487,177.034 127.435 C 177.233 127.383,177.021 127.342,176.563 127.344 C 176.104 127.347,175.941 127.389,176.200 127.439 M238.594 128.060 C 238.794 128.113,239.122 128.113,239.323 128.060 C 239.523 128.008,239.359 127.965,238.958 127.965 C 238.557 127.965,238.393 128.008,238.594 128.060 M250.275 131.771 C 250.316 132.172,250.473 132.188,254.482 132.194 L 258.646 132.200 254.546 132.138 C 250.872 132.081,250.434 132.037,250.339 131.714 C 250.258 131.441,250.243 131.455,250.275 131.771 M151.112 133.958 C 151.112 134.818,151.148 135.169,151.193 134.740 C 151.238 134.310,151.238 133.607,151.193 133.177 C 151.148 132.747,151.112 133.099,151.112 133.958 M135.690 133.854 C 135.691 134.542,135.730 134.798,135.776 134.423 C 135.822 134.049,135.821 133.486,135.774 133.173 C 135.726 132.860,135.688 133.167,135.690 133.854 M145.067 134.167 C 145.067 134.911,145.104 135.216,145.151 134.844 C 145.197 134.471,145.197 133.862,145.151 133.490 C 145.104 133.117,145.067 133.422,145.067 134.167 M217.969 134.688 C 217.972 135.146,218.014 135.309,218.064 135.050 C 218.114 134.791,218.112 134.416,218.060 134.216 C 218.008 134.017,217.967 134.229,217.969 134.688 M235.273 136.146 C 235.274 136.833,235.313 137.089,235.359 136.715 C 235.406 136.341,235.405 135.778,235.357 135.465 C 235.310 135.152,235.272 135.458,235.273 136.146 M140.260 140.769 C 140.461 140.821,140.789 140.821,140.990 140.769 C 141.190 140.716,141.026 140.673,140.625 140.673 C 140.224 140.673,140.060 140.716,140.260 140.769 M131.406 153.280 C 132.237 153.319,133.596 153.319,134.427 153.280 C 135.258 153.240,134.578 153.208,132.917 153.208 C 131.255 153.208,130.576 153.240,131.406 153.280 " stroke="none" fill="#ad95fc" fill-rule="evenodd"></path><path id="path3" d="" stroke="none" fill="#bca4fc" fill-rule="evenodd"></path><path id="path4" d="M133.802 74.318 C 134.232 74.363,134.935 74.363,135.365 74.318 C 135.794 74.273,135.443 74.237,134.583 74.237 C 133.724 74.237,133.372 74.273,133.802 74.318 M164.323 77.022 C 164.581 77.072,165.003 77.072,165.260 77.022 C 165.518 76.972,165.307 76.932,164.792 76.932 C 164.276 76.932,164.065 76.972,164.323 77.022 M180.160 77.026 C 180.534 77.072,181.097 77.071,181.410 77.024 C 181.723 76.976,181.417 76.938,180.729 76.940 C 180.042 76.941,179.786 76.980,180.160 77.026 M215.785 77.026 C 216.159 77.072,216.722 77.071,217.035 77.024 C 217.348 76.976,217.042 76.938,216.354 76.940 C 215.667 76.941,215.411 76.980,215.785 77.026 M239.740 77.026 C 240.112 77.072,240.721 77.072,241.094 77.026 C 241.466 76.979,241.161 76.942,240.417 76.942 C 239.672 76.942,239.367 76.979,239.740 77.026 M154.476 88.229 L 154.479 99.063 157.344 99.072 L 160.209 99.081 157.398 99.014 L 154.587 98.947 154.530 88.171 L 154.473 77.396 154.476 88.229 M251.953 79.688 C 251.953 80.948,251.988 81.437,252.029 80.774 C 252.071 80.111,252.070 79.079,252.028 78.482 C 251.986 77.885,251.952 78.427,251.953 79.688 M264.245 79.688 C 264.245 80.948,264.279 81.437,264.321 80.774 C 264.362 80.111,264.362 79.079,264.320 78.482 C 264.278 77.885,264.244 78.427,264.245 79.688 M161.341 78.385 L 160.729 79.063 161.406 78.451 C 161.779 78.114,162.083 77.809,162.083 77.774 C 162.083 77.613,161.911 77.754,161.341 78.385 M134.749 87.863 C 135.700 87.902,137.200 87.902,138.083 87.863 C 138.965 87.824,138.188 87.792,136.354 87.793 C 134.521 87.793,133.799 87.825,134.749 87.863 M160.265 89.375 C 160.265 89.891,160.306 90.102,160.355 89.844 C 160.405 89.586,160.405 89.164,160.355 88.906 C 160.306 88.648,160.265 88.859,160.265 89.375 M212.219 89.948 C 212.166 90.034,214.247 90.080,216.843 90.051 C 225.719 89.951,226.563 89.882,219.439 89.837 C 215.522 89.812,212.273 89.862,212.219 89.948 M128.490 99.113 C 129.320 99.153,130.680 99.153,131.510 99.113 C 132.341 99.073,131.661 99.041,130.000 99.041 C 128.339 99.041,127.659 99.073,128.490 99.113 M194.844 107.858 C 195.159 107.905,195.674 107.905,195.990 107.858 C 196.305 107.810,196.047 107.771,195.417 107.771 C 194.786 107.771,194.529 107.810,194.844 107.858 M161.330 117.708 C 161.330 119.141,161.364 119.727,161.404 119.010 C 161.445 118.294,161.445 117.122,161.404 116.406 C 161.364 115.690,161.330 116.276,161.330 117.708 M141.510 122.858 C 141.826 122.905,142.341 122.905,142.656 122.858 C 142.971 122.810,142.714 122.771,142.083 122.771 C 141.453 122.771,141.195 122.810,141.510 122.858 M175.781 122.859 C 176.154 122.905,176.763 122.905,177.135 122.859 C 177.508 122.813,177.203 122.775,176.458 122.775 C 175.714 122.775,175.409 122.813,175.781 122.859 M239.323 122.855 C 239.581 122.905,240.003 122.905,240.260 122.855 C 240.518 122.806,240.307 122.765,239.792 122.765 C 239.276 122.765,239.065 122.806,239.323 122.855 M253.702 122.859 C 254.076 122.906,254.639 122.905,254.952 122.857 C 255.265 122.810,254.958 122.772,254.271 122.773 C 253.583 122.774,253.327 122.813,253.702 122.859 M135.278 124.792 C 135.278 125.651,135.315 126.003,135.360 125.573 C 135.405 125.143,135.405 124.440,135.360 124.010 C 135.315 123.581,135.278 123.932,135.278 124.792 M161.300 134.005 L 161.250 144.780 158.385 144.844 L 155.521 144.909 158.392 144.954 C 160.531 144.988,161.288 144.934,161.363 144.740 C 161.418 144.596,161.437 139.698,161.406 133.854 L 161.350 123.229 161.300 134.005 M187.995 125.521 C 187.995 126.781,188.029 127.270,188.071 126.607 C 188.112 125.944,188.112 124.913,188.070 124.315 C 188.028 123.718,187.994 124.260,187.995 125.521 M200.286 125.521 C 200.287 126.781,200.321 127.270,200.363 126.607 C 200.404 125.944,200.404 124.913,200.362 124.315 C 200.320 123.718,200.286 124.260,200.286 125.521 M140.159 127.439 C 140.418 127.489,140.793 127.487,140.992 127.435 C 141.191 127.383,140.979 127.342,140.521 127.344 C 140.063 127.347,139.900 127.389,140.159 127.439 M264.406 134.841 L 264.375 135.620 257.240 135.677 L 250.104 135.735 257.246 135.784 C 265.027 135.838,264.711 135.887,264.526 134.653 C 264.451 134.155,264.433 134.184,264.406 134.841 M165.882 135.000 C 165.882 135.401,165.925 135.565,165.977 135.365 C 166.029 135.164,166.029 134.836,165.977 134.635 C 165.925 134.435,165.882 134.599,165.882 135.000 M213.073 140.980 C 213.331 141.030,213.753 141.030,214.010 140.980 C 214.268 140.931,214.057 140.890,213.542 140.890 C 213.026 140.890,212.815 140.931,213.073 140.980 M261.758 142.760 L 261.146 143.438 261.823 142.826 C 262.454 142.255,262.596 142.083,262.435 142.083 C 262.399 142.083,262.094 142.388,261.758 142.760 M135.716 147.708 C 135.716 150.745,135.745 151.987,135.781 150.469 C 135.816 148.951,135.816 146.466,135.781 144.948 C 135.745 143.430,135.716 144.672,135.716 147.708 M219.852 144.946 C 220.631 144.987,221.849 144.986,222.561 144.946 C 223.272 144.905,222.635 144.872,221.146 144.873 C 219.656 144.873,219.074 144.906,219.852 144.946 M230.876 144.946 C 231.645 144.986,232.957 144.986,233.793 144.947 C 234.629 144.907,234.000 144.874,232.396 144.874 C 230.792 144.874,230.108 144.906,230.876 144.946 " stroke="none" fill="#c4b4fc" fill-rule="evenodd"></path></g></svg>